<svg width="16" height="16" viewBox="0 0 16 16" fill="none" xmlns="http://www.w3.org/2000/svg">
  <rect width="16" height="16" rx="0.711111" fill="#0F1C2B" />
  <path
    d="M2.0673 8.5049H1.52115V7.97389L1.55726 7.93775L1.55709 7.93758L1.75306 7.74157L1.75323 7.74174L1.83208 7.66288C1.79507 7.62942 1.77175 7.58104 1.77175 7.5272C1.77175 7.42626 1.85359 7.34442 1.95453 7.34442C2.00837 7.34442 2.05675 7.3677 2.09021 7.40475L2.19992 7.29505L2.13214 7.22495L2.08115 7.2759C2.04307 7.25663 2.00006 7.24571 1.95453 7.24571C1.79933 7.24571 1.67304 7.37196 1.67304 7.52716C1.67304 7.57269 1.68392 7.61574 1.70323 7.65378L1.62201 7.735L1.62177 7.73471L1.55283 7.80364L1.55312 7.80389L1.42249 7.93742V8.54125L1.42236 8.54133V8.60361L2.10518 8.60357L2.10787 8.60216L2.20078 8.50924L2.13164 8.44051L2.0673 8.50486V8.5049Z"
    fill="#C89E45" />
  <path
    d="M1.42249 7.67632L1.52459 7.77602L1.59385 7.70675L1.52115 7.63405V7.09143H2.05568L2.37074 7.40649C2.4042 7.36944 2.45258 7.34616 2.50642 7.34616C2.60736 7.34616 2.6892 7.42799 2.6892 7.52894C2.6892 7.58278 2.66592 7.63116 2.62887 7.66461L2.73766 7.77345L2.80697 7.70303L2.75768 7.6556C2.77699 7.61751 2.78787 7.57451 2.78787 7.52894C2.78787 7.37374 2.66162 7.24749 2.50642 7.24749C2.46085 7.24749 2.41784 7.25837 2.37976 7.27768L2.09476 6.99268H2.09223L2.09215 6.99276H1.48915L1.48906 6.99268H1.42236V7.0569L1.42249 7.05702V7.67636V7.67632Z"
    fill="#C89E45" />
  <path
    d="M2.96804 6.99268L2.96796 6.99276H2.36826L2.36818 6.99268H2.36446L2.26157 7.09494L2.33117 7.164L2.40358 7.09147H2.93463V7.63757L2.62709 7.94511C2.66414 7.97856 2.68742 8.02695 2.68742 8.08079C2.68742 8.18173 2.60558 8.26356 2.50464 8.26356C2.4508 8.26356 2.40242 8.24028 2.36897 8.20323L2.25781 8.31443L2.32654 8.38357L2.37802 8.33209C2.41611 8.3514 2.45916 8.36227 2.50468 8.36227C2.65988 8.36227 2.78613 8.23602 2.78613 8.08079C2.78613 8.03526 2.77525 7.99225 2.75594 7.95416L2.93463 7.77548V7.77647L3.03325 7.67826V6.99268H2.96804Z"
    fill="#C89E45" />
  <path
    d="M2.86648 7.90227L2.93463 7.97037V8.5049H2.392L2.08855 8.20145C2.05514 8.23846 2.00672 8.26175 1.95288 8.26175C1.85193 8.26175 1.7701 8.17991 1.7701 8.07897C1.7701 8.02513 1.79338 7.97674 1.83043 7.94329L1.7189 7.83176L1.64997 7.9007L1.70158 7.9523C1.68226 7.99039 1.67139 8.03344 1.67139 8.07897C1.67139 8.23416 1.79764 8.36045 1.95288 8.36045C1.9984 8.36045 2.04145 8.34958 2.07954 8.33027L2.22965 8.48038L2.35065 8.60357L3.03329 8.60361V7.93295L3.03305 7.9327L3.03329 7.93245V7.93113L2.93467 7.83292L2.86652 7.90223L2.86648 7.90227Z"
    fill="#C89E45" />
  <path
    d="M2.51736 7.9684V7.9715L2.51744 7.97135V7.97445V7.97755V7.98065L2.51728 7.98375L2.51713 7.98685L2.5169 7.98995L2.51667 7.99305L2.51637 7.99615L2.51598 7.99925L2.5156 8.00235L2.51514 8.00546L2.51469 8.00848L2.51415 8.0115L2.51354 8.01453L2.51293 8.01755L2.51224 8.02057L2.51155 8.0236L2.51079 8.02662L2.51003 8.02957L2.50919 8.03251L2.50827 8.03546L2.50735 8.0384L2.50636 8.04135L2.50537 8.04422C2.50407 8.04646 2.50117 8.05305 2.50101 8.05546L2.49979 8.05871C2.49666 8.06492 2.49391 8.07189 2.49009 8.07763C2.48887 8.07995 2.48772 8.0822 2.48627 8.08437C2.4852 8.08616 2.48284 8.08848 2.48215 8.09027C2.47917 8.09771 2.47375 8.10298 2.46878 8.10887C2.44663 8.135 2.42028 8.15515 2.38973 8.1681C2.38553 8.16988 2.38125 8.17159 2.37698 8.17306C2.37262 8.17461 2.36827 8.17593 2.36392 8.17717L2.36353 8.1774C2.32916 8.18531 2.30625 8.1843 2.2715 8.1843C2.2579 8.1843 2.244 8.185 2.23048 8.18415C2.21773 8.18469 2.20482 8.1843 2.19207 8.1843H2.12233C2.11302 8.1843 2.09797 8.18345 2.08735 8.18407H2.0872H2.08697H2.08651L2.08567 8.18391C2.08506 8.18391 2.08453 8.18407 2.08407 8.1843C2.08369 8.18415 2.08323 8.18399 2.08269 8.18399L2.08147 8.18422L2.08048 8.18399H2.0801H2.07972L2.07887 8.18415L2.07803 8.18399L2.07758 8.18407L2.07704 8.18391L2.07613 8.18415L2.07559 8.18407H2.07521H2.07422C2.06856 8.1836 2.05237 8.18422 2.04863 8.18422C2.0125 8.18422 1.97615 8.18523 1.9401 8.18407C1.93903 8.18391 1.93956 8.18415 1.93849 8.18314V8.10104H2.20146H2.27662C2.29602 8.10104 2.31641 8.10251 2.3355 8.09841L2.3378 8.09786L2.34009 8.09732L2.34238 8.0967L2.34459 8.09608L2.34681 8.09538L2.34902 8.09468L2.35124 8.09391L2.35345 8.09306L2.35567 8.0922L2.35781 8.09127L2.35994 8.09034L2.36208 8.08933L2.36422 8.08833L2.36636 8.08724L2.36842 8.08616L2.37048 8.08499L2.37255 8.08383L2.37461 8.08259L2.37659 8.08135L2.37858 8.08003L2.38057 8.07871L2.38248 8.07732L2.38439 8.07592L2.38629 8.07445L2.38813 8.07298L2.38996 8.07143L2.39179 8.06988L2.39355 8.06825L2.39531 8.06662L2.39706 8.06492L2.39874 8.06321L2.40042 8.0615C2.42204 8.03864 2.43518 8.0077 2.43533 7.97491C2.43556 7.94204 2.4228 7.91103 2.40142 7.88785L2.39981 7.88615L2.39813 7.88444L2.39645 7.88281L2.39477 7.88119L2.39302 7.87956L2.39126 7.87801L2.38943 7.87646L2.38759 7.87498L2.38576 7.87351L2.38393 7.87212L2.38202 7.87072L2.38011 7.8694L2.3782 7.86809L2.37621 7.86677L2.37423 7.86553L2.37224 7.86436L2.37026 7.8632L2.36819 7.86204L2.36613 7.86095L2.36407 7.85995L2.36201 7.85894L2.35987 7.85801L2.35773 7.85708L2.35559 7.85622L2.35345 7.85537L2.35131 7.8546L2.34918 7.85382L2.34696 7.85312L2.34475 7.85243L2.34253 7.85181L2.34032 7.85119L2.3381 7.85064C2.31977 7.84622 2.30083 7.84731 2.28227 7.84731H2.22636H2.02167V7.93041L2.03244 7.93026C2.05039 7.93181 2.0691 7.93065 2.08712 7.93065H2.20253H2.27631L2.31068 7.93026V8.01825C2.30075 8.01662 2.27952 8.01794 2.26852 8.01794H2.17778H2.04947H2.00868C2.00273 8.01794 1.9902 8.01801 1.99051 8.01801H1.9902L1.96469 8.01786C1.95652 8.01786 1.93994 8.01735 1.93994 8.01735C1.94033 7.99332 1.93994 7.946 1.93994 7.946C1.93994 7.917 1.93887 7.85873 1.93887 7.85873C1.9388 7.85261 1.93918 7.84692 1.93895 7.8408C1.93857 7.8308 1.93887 7.81064 1.93887 7.81064V7.80715L1.93865 7.73327V7.59358H2.30915V7.68141H2.09461H2.0898C2.06673 7.68195 2.04344 7.68141 2.02037 7.68141V7.76444C2.09048 7.76343 2.16075 7.76436 2.23087 7.76444H2.28372C2.30052 7.76444 2.31748 7.76514 2.33405 7.76165L2.33611 7.76118L2.33818 7.76072L2.34024 7.76017L2.3423 7.75963L2.34436 7.75901L2.34635 7.75839L2.34834 7.75769L2.35032 7.757L2.35231 7.75622L2.35429 7.75545L2.35628 7.75467L2.35826 7.75382L2.36017 7.75296L2.36208 7.75203L2.36399 7.7511L2.3659 7.7501L2.36781 7.74909L2.36964 7.748L2.37148 7.74692L2.37331 7.74583L2.37514 7.74467L2.37698 7.74351L2.37873 7.74227L2.38049 7.74103L2.38225 7.73979L2.384 7.73847L2.38568 7.73715L2.38736 7.73575L2.38904 7.73436L2.39065 7.73296L2.39225 7.73149L2.39386 7.73002C2.41654 7.70854 2.43166 7.67878 2.4338 7.64598C2.43518 7.64001 2.43548 7.62862 2.43334 7.62288L2.43289 7.61901C2.43227 7.6128 2.43082 7.60738 2.42899 7.60149C2.42242 7.58226 2.41387 7.5659 2.40035 7.55125L2.39867 7.54947L2.39699 7.54776L2.39523 7.54606L2.39347 7.54435L2.39172 7.54272L2.38988 7.5411L2.38805 7.53954L2.38614 7.53799L2.38423 7.53652L2.38232 7.53505L2.38041 7.53365L2.37843 7.53226L2.37644 7.53094L2.37446 7.52962L2.37239 7.52838L2.37033 7.52714L2.36827 7.52598L2.36621 7.52482L2.36407 7.52373L2.36193 7.52264L2.35979 7.52164L2.35765 7.52071L2.35544 7.51978L2.35322 7.51892L2.35101 7.51807L2.34879 7.5173L2.34658 7.51652L2.34429 7.51582L2.342 7.5152L2.3397 7.51458L2.33741 7.51404L2.33512 7.5135C2.3158 7.50923 2.29548 7.51063 2.27585 7.51063H2.20543H1.9375C1.93803 7.48295 1.93765 7.4552 1.93765 7.42752H2.03251H2.07261L2.09196 7.4276H2.09407H2.09777H2.10118H2.23828H2.287C2.31374 7.4276 2.34009 7.42737 2.3659 7.4359L2.37171 7.43768C2.4254 7.45388 2.46863 7.49427 2.49567 7.54637C2.49949 7.55373 2.50575 7.56931 2.50575 7.56931L2.51079 7.58978C2.51239 7.59614 2.51346 7.60273 2.51438 7.60924C2.525 7.68769 2.49078 7.76002 2.43304 7.80552C2.4768 7.84103 2.50774 7.88661 2.5156 7.94669L2.51598 7.94979L2.51629 7.9529L2.5166 7.956L2.51682 7.9591L2.51705 7.9622L2.51721 7.9653C2.51736 7.96631 2.51736 7.96739 2.51736 7.9684Z"
    fill="#C89E45" />
  <path
    d="M14.5386 7.98793C14.5386 8.17081 14.4834 8.31968 14.3731 8.43455C14.2612 8.55244 14.1154 8.61138 13.9355 8.61138C13.7572 8.61138 13.6121 8.5532 13.5003 8.43682C13.3884 8.31591 13.3325 8.16628 13.3325 7.98793C13.3325 7.8111 13.3884 7.66223 13.5003 7.54131C13.6136 7.4204 13.7587 7.35995 13.9355 7.35995C14.1124 7.35995 14.2567 7.4204 14.3686 7.54131C14.4819 7.66223 14.5386 7.8111 14.5386 7.98793ZM14.1124 8.25318V7.72722C14.1124 7.55794 14.0534 7.4733 13.9355 7.4733C13.8146 7.4733 13.7542 7.55794 13.7542 7.72722V8.25318C13.7542 8.42246 13.8146 8.5071 13.9355 8.5071C14.0534 8.5071 14.1124 8.42246 14.1124 8.25318Z"
    fill="white" />
  <path
    d="M13.2202 7.9834C13.2202 8.14965 13.1877 8.28794 13.1227 8.39828C13.0441 8.53128 12.927 8.59778 12.7713 8.59778C12.7109 8.59778 12.6512 8.58342 12.5922 8.55471C12.5348 8.52448 12.4895 8.48443 12.4562 8.43455V8.83129C12.4562 8.88873 12.4796 8.93634 12.5265 8.97412H12.0005C12.0474 8.93785 12.0708 8.89024 12.0708 8.83129V7.53451C12.0708 7.47708 12.0474 7.42947 12.0005 7.39168H12.6693C12.8401 7.39168 12.9746 7.44761 13.0729 7.55945C13.1711 7.67129 13.2202 7.81261 13.2202 7.9834ZM12.794 8.24411V7.71815C12.794 7.65467 12.766 7.60252 12.7101 7.56172C12.6572 7.52544 12.599 7.50731 12.5356 7.50731H12.4562V8.26678C12.5031 8.37561 12.565 8.43002 12.6421 8.43002C12.7434 8.43002 12.794 8.36805 12.794 8.24411Z"
    fill="white" />
  <path
    d="M12.0837 8.57965H11.4761C11.4988 8.56151 11.5101 8.53657 11.5101 8.50483C11.5101 8.48065 11.5033 8.45798 11.4897 8.43682L11.2585 8.08542C11.1663 8.15494 11.1202 8.24034 11.1202 8.3416C11.1202 8.42775 11.1602 8.5071 11.2403 8.57965H10.762C10.762 8.43455 10.8013 8.31364 10.8799 8.21691C10.9494 8.13378 11.0552 8.05897 11.1972 7.99247L10.8957 7.53678C10.8655 7.49446 10.8179 7.44685 10.7529 7.39395H11.3605C11.3423 7.40755 11.3333 7.4272 11.3333 7.4529C11.3333 7.4801 11.3431 7.50806 11.3627 7.53678L11.5577 7.83377C11.6469 7.77634 11.6915 7.70681 11.6915 7.6252C11.6915 7.59346 11.6816 7.56474 11.662 7.53905C11.6439 7.51335 11.6189 7.50051 11.5872 7.50051C11.5615 7.50051 11.5381 7.50655 11.5169 7.51864C11.5214 7.46574 11.5479 7.42191 11.5963 7.38715C11.6386 7.35541 11.6885 7.33954 11.7459 7.33954C11.8048 7.33954 11.8539 7.35995 11.8932 7.40075C11.9325 7.44005 11.9522 7.48917 11.9522 7.54811C11.9522 7.63729 11.9152 7.71361 11.8411 7.77709C11.8169 7.79825 11.7852 7.82017 11.7459 7.84284C11.7081 7.864 11.6628 7.88667 11.6099 7.91085L11.9567 8.43682C11.9945 8.49727 12.0368 8.54488 12.0837 8.57965Z"
    fill="white" />
  <path
    d="M10.6674 7.96526L10.5948 8.57965H9.20508C9.25193 8.54337 9.27536 8.49576 9.27536 8.43682V7.1355C9.27536 7.07807 9.25193 7.03046 9.20508 6.99268H10.52L10.6039 7.43703C10.5918 7.42645 10.5774 7.4136 10.5608 7.39849C10.5457 7.38337 10.5276 7.36599 10.5064 7.34634C10.4263 7.27984 10.3394 7.22316 10.2457 7.17631C10.1112 7.11283 9.98723 7.08185 9.87387 7.08336L9.70611 7.08563V7.69321C9.78772 7.59043 9.90561 7.53905 10.0598 7.53905C10.0764 7.53905 10.0945 7.5398 10.1142 7.54131C10.1353 7.54283 10.1565 7.54509 10.1777 7.54812C10.2744 7.56172 10.3386 7.56852 10.3704 7.56852C10.452 7.56852 10.5124 7.54434 10.5517 7.49597C10.5019 7.69094 10.4014 7.78843 10.2502 7.78843C10.2139 7.78843 10.1633 7.77936 10.0983 7.76122C10.0318 7.74309 9.98118 7.73402 9.94642 7.73402C9.83155 7.73402 9.75145 7.77709 9.70611 7.86324V8.48669H9.86707C10.0016 8.48669 10.1384 8.44211 10.2774 8.35294C10.3303 8.31817 10.3802 8.27963 10.427 8.23731C10.4739 8.19499 10.5185 8.14965 10.5608 8.10129C10.5729 8.08617 10.5873 8.06728 10.6039 8.04461C10.622 8.02194 10.6432 7.99549 10.6674 7.96526Z"
    fill="white" />
  <path
    d="M9.20299 8.57965H8.59088C8.62564 8.55244 8.64302 8.51919 8.64302 8.47989C8.64302 8.46327 8.63924 8.44891 8.63169 8.43682L8.32336 7.93579V8.43682C8.32336 8.49425 8.34679 8.54186 8.39364 8.57965H7.86767C7.91453 8.54337 7.93795 8.49576 7.93795 8.43682V7.1355C7.93795 7.07807 7.91453 7.03046 7.86767 6.99268L8.32336 6.99494V7.84284C8.40649 7.84284 8.47601 7.81488 8.53193 7.75896C8.59088 7.70303 8.62035 7.63502 8.62035 7.55492C8.62035 7.53225 8.61204 7.49748 8.59541 7.45063C8.59239 7.44156 8.58861 7.43249 8.58408 7.42342C8.57954 7.41436 8.57501 7.40453 8.57047 7.39395H9.11684C9.11684 7.52393 9.04656 7.63729 8.906 7.73402C8.88484 7.74913 8.85613 7.76651 8.81985 7.78616C8.78509 7.8043 8.74353 7.82395 8.69516 7.84511L9.0579 8.43682C9.06999 8.45949 9.09417 8.48745 9.13045 8.5207C9.13649 8.52675 9.14556 8.5343 9.15765 8.54337C9.16974 8.55244 9.18486 8.56453 9.20299 8.57965Z"
    fill="#C89E45" />
  <path
    d="M7.8349 8.57965H7.3112C7.35805 8.54337 7.38148 8.49576 7.38148 8.43682V7.72722C7.38148 7.60328 7.33085 7.54131 7.22959 7.54131C7.1525 7.54131 7.09054 7.59572 7.04368 7.70455V8.43682C7.04368 8.49425 7.06711 8.54186 7.11396 8.57965H6.588C6.63485 8.54337 6.65828 8.49576 6.65828 8.43682V7.53451C6.65828 7.47708 6.63485 7.42947 6.588 7.39169L7.04368 7.39395V7.53678C7.11925 7.42494 7.2243 7.36901 7.35881 7.36901C7.50844 7.36901 7.6165 7.41662 7.68301 7.51184C7.73742 7.59195 7.76462 7.7121 7.76462 7.87231V8.43682C7.76462 8.49425 7.78805 8.54186 7.8349 8.57965Z"
    fill="#C89E45" />
  <path
    d="M6.54816 8.57965H6.09247V8.5071C6.05166 8.53733 6.01992 8.55773 5.99725 8.56831C5.91715 8.60609 5.83402 8.62499 5.74787 8.62499C5.63149 8.62499 5.53627 8.59854 5.46222 8.54564C5.3806 8.48518 5.33979 8.39677 5.33979 8.28039C5.33979 8.15948 5.40252 8.05897 5.52796 7.97886C5.55819 7.95922 5.60278 7.9373 5.66172 7.91312C5.72067 7.88742 5.79548 7.85795 5.88616 7.8247C6.01917 7.77634 6.08869 7.73024 6.09474 7.68641V7.62746C6.09474 7.58061 6.07962 7.54358 6.04939 7.51638C6.01917 7.48766 5.98063 7.4733 5.93377 7.4733C5.92017 7.4733 5.90506 7.47708 5.88843 7.48464C5.87332 7.49068 5.85896 7.49899 5.84536 7.50957C5.83175 7.52015 5.82042 7.53224 5.81135 7.54585C5.80228 7.55945 5.79775 7.57305 5.79775 7.58666C5.79775 7.61839 5.81135 7.64107 5.83855 7.65467C5.8053 7.70152 5.74938 7.72495 5.67079 7.72495C5.59069 7.72495 5.52267 7.70001 5.46675 7.65013C5.40932 7.59724 5.3806 7.533 5.3806 7.45743C5.3806 7.44534 5.3806 7.43476 5.3806 7.42569C5.38211 7.41662 5.38362 7.40831 5.38513 7.40075C5.43652 7.41284 5.4796 7.41889 5.51436 7.41889C5.52796 7.41889 5.55366 7.41587 5.59144 7.40982C5.63074 7.40226 5.68439 7.39244 5.7524 7.38035C5.82193 7.36675 5.88239 7.35995 5.93377 7.35995C6.09852 7.35995 6.22321 7.38186 6.30784 7.42569C6.4212 7.48464 6.47788 7.58741 6.47788 7.73402V8.43682C6.47788 8.49425 6.5013 8.54186 6.54816 8.57965ZM6.09247 8.23958V7.83604L5.8771 7.97433C5.80304 8.03479 5.76601 8.12547 5.76601 8.24638C5.76601 8.3945 5.81966 8.46856 5.92697 8.46856C5.9844 8.46856 6.02748 8.44286 6.0562 8.39148C6.08038 8.35369 6.09247 8.30306 6.09247 8.23958Z"
    fill="#C89E45" />
  <path
    d="M5.24015 8.05821C5.24015 8.22144 5.17214 8.35142 5.03611 8.44815C4.91671 8.53582 4.77162 8.57965 4.60083 8.57965H3.62598C3.67283 8.54337 3.69626 8.49576 3.69626 8.43682V7.1355C3.69626 7.07807 3.67283 7.03046 3.62598 6.99268H4.79127C4.87288 6.99268 4.9356 6.99872 4.97944 7.01081C5.0671 7.03802 5.11093 7.09621 5.11093 7.18538C5.11093 7.27455 5.01495 7.35163 4.82301 7.41662C4.82301 7.41662 4.79202 7.4272 4.73005 7.44836C4.6696 7.46952 4.57514 7.50126 4.44667 7.54358C4.4648 7.54056 4.48445 7.53829 4.50561 7.53678C4.52828 7.53527 4.55246 7.53451 4.57816 7.53451C4.76859 7.53451 4.92125 7.57381 5.03611 7.6524C5.17214 7.74309 5.24015 7.87836 5.24015 8.05821ZM4.53508 7.23072C4.53508 7.13399 4.45951 7.08563 4.30837 7.08563H4.12474V7.632C4.1323 7.62444 4.15194 7.60933 4.18368 7.58666C4.21693 7.56398 4.26152 7.533 4.31744 7.4937C4.46254 7.39244 4.53508 7.30478 4.53508 7.23072ZM4.75499 8.07182C4.75499 7.96451 4.72174 7.8708 4.65524 7.7907C4.5842 7.70455 4.49579 7.66147 4.38999 7.66147C4.27361 7.66147 4.18519 7.69397 4.12474 7.75896L4.12701 8.48443H4.26076C4.39528 8.48443 4.50939 8.45042 4.6031 8.38241C4.70436 8.30835 4.75499 8.20482 4.75499 8.07182Z"
    fill="#C89E45" />
</svg>