<svg width="20" height="20" viewBox="0 0 20 20" fill="none" xmlns="http://www.w3.org/2000/svg">
    <path
        d="M10.0001 1.66666C5.40526 1.66666 1.66675 5.40518 1.66675 10C1.66675 14.5948 5.40526 18.3333 10.0001 18.3333C14.5949 18.3333 18.3334 14.5948 18.3334 10C18.3334 5.40518 14.5949 1.66666 10.0001 1.66666ZM14.6576 7.80701L9.33174 13.0911C9.01846 13.4043 8.51721 13.4252 8.18304 13.1119L5.36349 10.543C5.02932 10.2297 5.00844 9.7076 5.30083 9.37343C5.61412 9.03926 6.13626 9.01838 6.47042 9.33166L8.70518 11.3784L13.4671 6.61654C13.8013 6.28237 14.3234 6.28237 14.6576 6.61654C14.9917 6.95071 14.9917 7.47285 14.6576 7.80701Z"
        fill="#D2BA93" />
</svg>